name C:\Users\antoi\Documents\MyRepositories\upper-imu-dc\Results\main_tracking\Case_69\FLX01_angularVelocities_bodyFrame.mot
datacolumns 4
datarows 117
range 2.01000000 3.17000000
endheader 
time	radius_imu_x	radius_imu_y	radius_imu_z	
          2.01000000	         -0.99422119	          0.53954589	         -0.72458842	
          2.02000000	         -0.98518474	          0.54982014	         -0.72802031	
          2.03000000	         -0.97632999	          0.55703193	         -0.72985118	
          2.04000000	         -0.96764274	          0.56083056	         -0.73015603	
          2.05000000	         -0.95911141	          0.56099812	         -0.72903606	
          2.06000000	         -0.95073596	          0.55747881	         -0.72661781	
          2.07000000	         -0.94253390	          0.55041169	         -0.72305272	
          2.08000000	         -0.93454154	          0.54015704	         -0.71851816	
          2.09000000	         -0.92681041	          0.52730568	         -0.71321897	
          2.10000000	         -0.91939972	          0.51266176	         -0.70738772	
          2.11000000	         -0.91236604	          0.49719358	         -0.70128103	
          2.12000000	         -0.90575192	          0.48195234	         -0.69517056	
          2.13000000	         -0.89957604	          0.46796775	         -0.68932949	
          2.14000000	         -0.89382733	          0.45613683	         -0.68401798	
          2.15000000	         -0.88846511	          0.44713234	         -0.67947098	
          2.16000000	         -0.88342474	          0.44135477	         -0.67589025	
          2.17000000	         -0.87862603	          0.43893333	         -0.67343914	
          2.18000000	         -0.87398117	          0.43976267	         -0.67223782	
          2.19000000	         -0.86939985	          0.44355436	         -0.67235715	
          2.20000000	         -0.86479160	          0.44988653	         -0.67381222	
          2.21000000	         -0.86006628	          0.45824733	         -0.67655795	
          2.22000000	         -0.85513415	          0.46807637	         -0.68049041	
          2.23000000	         -0.84990645	          0.47881227	         -0.68545608	
          2.24000000	         -0.84429616	          0.48994571	         -0.69126844	
          2.25000000	         -0.83821744	          0.50106706	         -0.69772827	
          2.26000000	         -0.83158339	          0.51189651	         -0.70464243	
          2.27000000	         -0.82430279	          0.52229029	         -0.71183674	
          2.28000000	         -0.81627746	          0.53222224	         -0.71916041	
          2.29000000	         -0.80740266	          0.54174342	         -0.72648285	
          2.30000000	         -0.79757165	          0.55092876	         -0.73368503	
          2.31000000	         -0.78668389	          0.55981878	         -0.74064889	
          2.32000000	         -0.77465660	          0.56836866	         -0.74724807	
          2.33000000	         -0.76143660	          0.57641718	         -0.75334279	
          2.34000000	         -0.74701074	          0.58368461	         -0.75878096	
          2.35000000	         -0.73141321	          0.58980348	         -0.76340632	
          2.36000000	         -0.71472780	          0.59437321	         -0.76707156	
          2.37000000	         -0.69708562	          0.59702249	         -0.76965325	
          2.38000000	         -0.67865944	          0.59746646	         -0.77106433	
          2.39000000	         -0.65965691	          0.59554943	         -0.77126104	
          2.40000000	         -0.64031354	          0.59126586	         -0.77024277	
          2.41000000	         -0.62088537	          0.58475760	         -0.76804570	
          2.42000000	         -0.60164065	          0.57629149	         -0.76473337	
          2.43000000	         -0.58285051	          0.56622449	         -0.76038696	
          2.44000000	         -0.56477833	          0.55496223	         -0.75509778	
          2.45000000	         -0.54766864	          0.54291466	         -0.74896246	
          2.46000000	         -0.53173626	          0.53045228	         -0.74208082	
          2.47000000	         -0.51715634	          0.51786748	         -0.73455549	
          2.48000000	         -0.50405578	          0.50534692	         -0.72649277	
          2.49000000	         -0.49250698	          0.49296226	         -0.71800416	
          2.50000000	         -0.48252486	          0.48068360	         -0.70920832	
          2.51000000	         -0.47406818	          0.46841199	         -0.70023219	
          2.52000000	         -0.46704513	          0.45602119	         -0.69120981	
          2.53000000	         -0.46132326	          0.44339901	         -0.68227756	
          2.54000000	         -0.45674237	          0.43048124	         -0.67356613	
          2.55000000	         -0.45312891	          0.41727393	         -0.66519072	
          2.56000000	         -0.45030978	          0.40386149	         -0.65724196	
          2.57000000	         -0.44812368	          0.39040224	         -0.64977976	
          2.58000000	         -0.44642902	          0.37711373	         -0.64283178	
          2.59000000	         -0.44510829	          0.36425083	         -0.63639693	
          2.60000000	         -0.44406940	          0.35207921	         -0.63045308	
          2.61000000	         -0.44324466	          0.34084656	         -0.62496683	
          2.62000000	         -0.44258792	          0.33075494	         -0.61990265	
          2.63000000	         -0.44206976	          0.32193815	         -0.61522940	
          2.64000000	         -0.44167094	          0.31444738	         -0.61092342	
          2.65000000	         -0.44137453	          0.30824887	         -0.60696880	
          2.66000000	         -0.44115805	          0.30323255	         -0.60335640	
          2.67000000	         -0.44098696	          0.29922865	         -0.60008284	
          2.68000000	         -0.44081016	          0.29602867	         -0.59714985	
          2.69000000	         -0.44055858	          0.29340483	         -0.59456389	
          2.70000000	         -0.44014732	          0.29112627	         -0.59233554	
          2.71000000	         -0.43948078	          0.28897359	         -0.59047855	
          2.72000000	         -0.43845943	          0.28675349	         -0.58900802	
          2.73000000	         -0.43698658	          0.28431263	         -0.58793705	
          2.74000000	         -0.43497420	          0.28154651	         -0.58727130	
          2.75000000	         -0.43234711	          0.27839950	         -0.58700158	
          2.76000000	         -0.42904579	          0.27485614	         -0.58709613	
          2.77000000	         -0.42502803	          0.27092803	         -0.58749487	
          2.78000000	         -0.42026960	          0.26664217	         -0.58810750	
          2.79000000	         -0.41476407	          0.26203405	         -0.58881621	
          2.80000000	         -0.40852168	          0.25714509	         -0.58948217	
          2.81000000	         -0.40156747	          0.25202189	         -0.58995482	
          2.82000000	         -0.39393863	          0.24671420	         -0.59008241	
          2.83000000	         -0.38568116	          0.24127122	         -0.58972255	
          2.84000000	         -0.37684582	          0.23573812	         -0.58875152	
          2.85000000	         -0.36748355	          0.23015522	         -0.58707101	
          2.86000000	         -0.35764096	          0.22456016	         -0.58461130	
          2.87000000	         -0.34735644	          0.21899031	         -0.58133093	
          2.88000000	         -0.33665783	          0.21348184	         -0.57721348	
          2.89000000	         -0.32556222	          0.20806358	         -0.57226232	
          2.90000000	         -0.31407815	          0.20274800	         -0.56649434	
          2.91000000	         -0.30220964	          0.19752438	         -0.55993322	
          2.92000000	         -0.28996146	          0.19235867	         -0.55260284	
          2.93000000	         -0.27734434	          0.18720200	         -0.54452173	
          2.94000000	         -0.26437961	          0.18200532	         -0.53569941	
          2.95000000	         -0.25110299	          0.17673563	         -0.52613561	
          2.96000000	         -0.23756728	          0.17138909	         -0.51582272	
          2.97000000	         -0.22384383	          0.16599898	         -0.50475123	
          2.98000000	         -0.21002204	          0.16063895	         -0.49291728	
          2.99000000	         -0.19620669	          0.15542060	         -0.48033028	
          3.00000000	         -0.18251281	          0.15048313	         -0.46701864	
          3.01000000	         -0.16905834	          0.14597366	         -0.45303169	
          3.02000000	         -0.15595580	          0.14202272	         -0.43843759	
          3.03000000	         -0.14330426	          0.13872433	         -0.42331817	
          3.04000000	         -0.13118310	          0.13612810	         -0.40776317	
          3.05000000	         -0.11964779	          0.13424334	         -0.39186600	
          3.06000000	         -0.10872887	          0.13305283	         -0.37572118	
          3.07000000	         -0.09843406	          0.13253029	         -0.35942302	
          3.08000000	         -0.08875208	          0.13265533	         -0.34306436	
          3.09000000	         -0.07965685	          0.13342317	         -0.32673408	
          3.10000000	         -0.07111144	          0.13484589	         -0.31051353	
          3.11000000	         -0.06307228	          0.13694221	         -0.29447292	
          3.12000000	         -0.05549321	          0.13971708	         -0.27866887	
          3.13000000	         -0.04833005	          0.14313784	         -0.26314402	
          3.14000000	         -0.04154543	          0.14711574	         -0.24792841	
          3.15000000	         -0.03511327	          0.15150004	         -0.23304241	
          3.16000000	         -0.02902203	          0.15608771	         -0.21850026	
          3.17000000	         -0.02327554	          0.16064512	         -0.20431340	
